# xmcd
#
# Track frame offsets:
#	150
#	9032
#	20185
#	37197
#	47805
#	59177
#	70367
#	80645
#	91080
#	98012
#	107640
#	119552
#	132345
#	144367
#	161330
#	172877
#	185347
#	200265
#	208957
#	223305
#	235345
#	247760
#	259242
#	269940
#	275267
#
# Disc length: 3813
#
# Revision: 2
# Processed by: cddbd v1.5.1PL0 Copyright (c) Steve Scherf et al.
# Submitted via: CDex 1.50Beta7
# Normalized: r1:DSETVAR1,TDELIM( - )
#
DISCID=790ee319
DTITLE=Various Artist - Country Classics Vol 2
DYEAR=1996
DGENRE=Country
TTITLE0=Lynn Anderson - Is There Something On Your Mind
TTITLE1=Don Gibson - Country Green
TTITLE2=Tanya Tucker - The Night They Drove Ol' Dixie Down
TTITLE3=Patsy Cline - I Don't Wanna
TTITLE4=Lynn Anderson - Listen To A Country Song
TTITLE5=Frankie Laine - Answer Me
TTITLE6=Billie Jo Spears - It Makes No Difference Now
TTITLE7=Kenny Rogers - Ticket To Nowhere
TTITLE8=Tammy Wynette - Where The Grass Grows Over Me
TTITLE9=Glen Campbell - Dreams Of The Everyday Housewife
TTITLE10=Charlie Pride - There Goes My Everything
TTITLE11=Freddy Fender - Silver Wings
TTITLE12=Waylon Jennings - Don't Think Twice
TTITLE13=Glen Campbell - Southern Nights
TTITLE14=Barbara Fairchild - Cheatin' Is
TTITLE15=Stonewall Jackson - Me and You and A Dog Named Boo
TTITLE16=Tex Ritter - I Dreamed Of A Hillbilly Heaven
TTITLE17=Anne Murray - Paths Of Victory
TTITLE18=Frankie Lane - There Must Be A Reason
TTITLE19=Willie Nelson - Happiness Lives Next Door
TTITLE20=Lynn Anderson - Stand By Me
TTITLE21=Patsy Cline - I've Loved And Lost Again
TTITLE22=Kenny Rogers - She Even Woke Me Up To Say Goodbye
TTITLE23=Tammy Wynette - I'll Fly Away
TTITLE24=Billie Jo Spears - I'm So Lonesome I Could Cry
EXTD=YEAR: 1996
EXTT0=
EXTT1=
EXTT2=
EXTT3=
EXTT4=
EXTT5=
EXTT6=
EXTT7=
EXTT8=
EXTT9=
EXTT10=
EXTT11=
EXTT12=
EXTT13=
EXTT14=
EXTT15=
EXTT16=
EXTT17=
EXTT18=
EXTT19=
EXTT20=
EXTT21=
EXTT22=
EXTT23=
EXTT24=
PLAYORDER=
